<svg width="29" height="12" viewBox="0 0 29 12" fill="none" xmlns="http://www.w3.org/2000/svg">
<mask id="path-1-outside-1_17116_1567" maskUnits="userSpaceOnUse" x="0" y="0" width="29" height="12" fill="black">
<rect fill="white" width="29" height="12"/>
<path fill-rule="evenodd" clip-rule="evenodd" d="M22.4887 1.2253C22.7873 0.924899 23.2715 0.924899 23.5701 1.2253L27.776 5.45607C27.9194 5.60033 28 5.79599 28 6C28 6.20401 27.9194 6.39967 27.776 6.54393L23.5701 10.7747C23.2715 11.0751 22.7873 11.0751 22.4887 10.7747C22.19 10.4743 22.19 9.98724 22.4887 9.68684L26.1538 6L22.4887 2.31316C22.19 2.01276 22.19 1.52571 22.4887 1.2253Z"/>
<path d="M1 5.23077H26.8529V6.76923H1V5.23077Z"/>
</mask>
<path fill-rule="evenodd" clip-rule="evenodd" d="M22.4887 1.2253C22.7873 0.924899 23.2715 0.924899 23.5701 1.2253L27.776 5.45607C27.9194 5.60033 28 5.79599 28 6C28 6.20401 27.9194 6.39967 27.776 6.54393L23.5701 10.7747C23.2715 11.0751 22.7873 11.0751 22.4887 10.7747C22.19 10.4743 22.19 9.98724 22.4887 9.68684L26.1538 6L22.4887 2.31316C22.19 2.01276 22.19 1.52571 22.4887 1.2253Z" fill="#190B34"/>
<path d="M1 5.23077H26.8529V6.76923H1V5.23077Z" fill="#190B34"/>
<path d="M23.5701 1.2253L23.3574 1.43681V1.43681L23.5701 1.2253ZM22.4887 1.2253L22.2759 1.0138L22.4887 1.2253ZM27.776 5.45607L27.9888 5.24457L27.776 5.45607ZM28 6H28.3H28ZM27.776 6.54393L27.5633 6.33242L27.5633 6.33242L27.776 6.54393ZM23.5701 10.7747L23.3574 10.5632L23.5701 10.7747ZM22.4887 10.7747L22.7014 10.5632V10.5632L22.4887 10.7747ZM22.4887 9.68684L22.7014 9.89835L22.4887 9.68684ZM26.1538 6L26.3666 6.21151C26.4829 6.09449 26.4829 5.90551 26.3666 5.78849L26.1538 6ZM22.4887 2.31316L22.7014 2.10165V2.10165L22.4887 2.31316ZM1 5.23077V4.93077H0.7V5.23077H1ZM26.8529 5.23077H27.1529V4.93077H26.8529V5.23077ZM26.8529 6.76923V7.06923H27.1529V6.76923H26.8529ZM1 6.76923H0.7V7.06923H1V6.76923ZM23.7829 1.0138C23.3669 0.595401 22.6918 0.595401 22.2759 1.0138L22.7014 1.43681C22.8828 1.2544 23.176 1.2544 23.3574 1.43681L23.7829 1.0138ZM27.9888 5.24457L23.7829 1.0138L23.3574 1.43681L27.5633 5.66758L27.9888 5.24457ZM28.3 6C28.3 5.71699 28.1883 5.44522 27.9888 5.24457L27.5633 5.66758C27.6506 5.75544 27.7 5.87498 27.7 6H28.3ZM27.9888 6.75543C28.1883 6.55478 28.3 6.28301 28.3 6H27.7C27.7 6.12502 27.6506 6.24456 27.5633 6.33242L27.9888 6.75543ZM23.7829 10.9862L27.9888 6.75543L27.5633 6.33242L23.3574 10.5632L23.7829 10.9862ZM22.2759 10.9862C22.6918 11.4046 23.3669 11.4046 23.7829 10.9862L23.3574 10.5632C23.176 10.7456 22.8828 10.7456 22.7014 10.5632L22.2759 10.9862ZM22.2759 9.47534C21.8609 9.89275 21.8609 10.5688 22.2759 10.9862L22.7014 10.5632C22.5191 10.3798 22.5191 10.0817 22.7014 9.89835L22.2759 9.47534ZM25.9411 5.78849L22.2759 9.47534L22.7014 9.89835L26.3666 6.21151L25.9411 5.78849ZM22.2759 2.52466L25.9411 6.21151L26.3666 5.78849L22.7014 2.10165L22.2759 2.52466ZM22.2759 1.0138C21.8609 1.43121 21.8609 2.10725 22.2759 2.52466L22.7014 2.10165C22.5191 1.91826 22.5191 1.6202 22.7014 1.43681L22.2759 1.0138ZM1 5.53077H26.8529V4.93077H1V5.53077ZM26.5529 5.23077V6.76923H27.1529V5.23077H26.5529ZM26.8529 6.46923H1V7.06923H26.8529V6.46923ZM1.3 6.76923V5.23077H0.7V6.76923H1.3Z" fill="#190B34" mask="url(#path-1-outside-1_17116_1567)"/>
</svg>
