<svg width="24" height="24" viewBox="0 0 24 24" fill="none" xmlns="http://www.w3.org/2000/svg">
<path fill-rule="evenodd" clip-rule="evenodd" d="M18 3.50098H6C4.61929 3.50098 3.5 4.62026 3.5 6.00098V18.001C3.5 19.3817 4.61929 20.501 6 20.501H18C19.3807 20.501 20.5 19.3817 20.5 18.001V6.00098C20.5 4.62026 19.3807 3.50098 18 3.50098ZM6 2.00098C3.79086 2.00098 2 3.79184 2 6.00098V18.001C2 20.2101 3.79086 22.001 6 22.001H18C20.2091 22.001 22 20.2101 22 18.001V6.00098C22 3.79184 20.2091 2.00098 18 2.00098H6Z" fill="#190B34"/>
<path fill-rule="evenodd" clip-rule="evenodd" d="M12 15.501C13.933 15.501 15.5 13.934 15.5 12.001C15.5 10.068 13.933 8.50098 12 8.50098C10.067 8.50098 8.5 10.068 8.5 12.001C8.5 13.934 10.067 15.501 12 15.501ZM12 17.001C14.7614 17.001 17 14.7624 17 12.001C17 9.23955 14.7614 7.00098 12 7.00098C9.23858 7.00098 7 9.23955 7 12.001C7 14.7624 9.23858 17.001 12 17.001Z" fill="#190B34"/>
<path d="M19 5.50098C19 5.77712 18.7761 6.00098 18.5 6.00098C18.2239 6.00098 18 5.77712 18 5.50098C18 5.22483 18.2239 5.00098 18.5 5.00098C18.7761 5.00098 19 5.22483 19 5.50098Z" fill="#190B34"/>
</svg>
