<svg width="20" height="20" viewBox="0 0 20 20" fill="none" xmlns="http://www.w3.org/2000/svg">
<path d="M9.99691 0.00723221C12.8355 0.00723221 15.6742 0.015035 18.5128 0.000989987C19.2689 -0.00213112 19.8813 0.539381 19.9829 1.20574C19.9938 1.27908 20.0016 1.35399 20.0016 1.4289C20.0016 7.14677 20.0016 12.8646 20.0016 18.581C20.0016 19.3394 19.3986 19.9667 18.644 19.9995C18.594 20.0011 18.544 20.0011 18.494 20.0011C12.8293 20.0011 7.16453 20.0011 1.49977 20.0011C0.788942 20.0011 0.251524 19.6203 0.0640527 18.9742C0.0234339 18.8322 0.00312452 18.6808 0.00312452 18.5326C0 12.8459 0 7.16082 0 1.47415C0 0.628333 0.612407 0.0103533 1.46071 0.00723221C2.93236 0.00255054 4.40558 0.00723221 5.87723 0.00723221C7.25045 0.00723221 8.62212 0.00723221 9.99535 0.00723221H9.99691ZM10.6671 8.58148C10.6671 8.18354 10.6593 7.84022 10.6702 7.49846C10.6749 7.33148 10.6281 7.27061 10.45 7.27217C9.6329 7.28154 8.81584 7.2831 7.99878 7.27217C7.80506 7.26905 7.75975 7.33148 7.75975 7.51718C7.76444 10.5571 7.76444 13.0782 7.75975 16.1166C7.75975 16.3023 7.80818 16.3678 8.00034 16.3662C8.84865 16.3569 9.69696 16.3584 10.5453 16.3662C10.7327 16.3678 10.7874 16.3116 10.7874 16.1212C10.7796 14.5981 10.778 13.594 10.7874 12.0709C10.789 11.7478 10.8093 11.4217 10.8655 11.1049C10.9796 10.4588 11.2748 9.93448 11.9669 9.76126C12.1747 9.70976 12.3981 9.69728 12.6137 9.7004C13.3355 9.7082 13.776 10.0422 13.9354 10.7507C14.0213 11.1299 14.0541 11.5262 14.0572 11.9164C14.0697 13.4894 14.065 14.5435 14.0588 16.1166C14.0588 16.2991 14.1072 16.3694 14.3009 16.3678C15.1493 16.3584 15.9976 16.36 16.8459 16.3678C17.0271 16.3694 17.0771 16.3101 17.0771 16.1322C17.0708 14.4405 17.0708 13.2678 17.0771 11.5762C17.0786 10.8833 17.0427 10.1935 16.8834 9.51625C16.6662 8.59084 16.2397 7.80276 15.3305 7.39546C14.429 6.99127 13.4808 6.91013 12.5231 7.16138C11.7357 7.36737 11.1374 7.84958 10.6702 8.5846L10.6671 8.58148ZM2.9308 12.074C2.9308 13.6033 2.93236 14.6122 2.92768 16.1415C2.92768 16.2976 2.96049 16.3662 3.13233 16.3647C4.00564 16.3584 4.87894 16.3584 5.75225 16.3647C5.91003 16.3647 5.95378 16.3054 5.95378 16.154C5.95065 13.0906 5.95065 10.5462 5.95378 7.48129C5.95378 7.31275 5.89597 7.27217 5.73662 7.27374C4.87582 7.27998 4.01501 7.28154 3.15421 7.27374C2.9683 7.27217 2.92612 7.33148 2.92768 7.50782C2.93393 9.03092 2.9308 10.5525 2.9308 12.0756V12.074ZM4.43682 6.19951C5.4023 6.19951 6.17562 5.43328 6.17718 4.4751C6.17718 3.50444 5.40542 2.72416 4.44151 2.72416C3.46978 2.72416 2.70427 3.49507 2.70427 4.47042C2.70427 5.43328 3.47134 6.19951 4.43682 6.19951Z" fill="#190B34"/>
</svg>
