<svg width="189" height="54" viewBox="0 0 189 54" fill="none" xmlns="http://www.w3.org/2000/svg">
<g clip-path="url(#clip0_19148_2136)">
<path d="M66.937 15.8396V34.4943H62.7322V15.8396H66.937Z" fill="white"/>
<path d="M83.3868 26.313V34.4943H79.4452V26.8991C79.4452 25.2469 78.4202 24.474 77.1588 24.474C75.7134 24.474 74.7151 25.327 74.7151 27.219V34.4943H70.7731V21.1696H74.7151V22.4222C75.4246 21.4362 76.7384 20.7964 78.4729 20.7964C81.127 20.7964 83.3868 22.7151 83.3868 26.313Z" fill="white"/>
<path d="M91.6905 21.1696H94.1345V25.0071H91.6905V34.4943H87.7485V25.0071H85.988V21.1696H87.7485C87.7485 17.4386 89.7721 15.2 94.1345 15.4665V19.3041C92.6628 19.1708 91.6905 19.6238 91.6905 21.1696Z" fill="white"/>
<path d="M95.9996 27.8318C95.9944 26.4339 96.3984 25.0659 97.1604 23.901C97.9224 22.7362 99.0082 21.8268 100.28 21.2882C101.552 20.7496 102.953 20.6059 104.306 20.8754C105.659 21.1449 106.902 21.8153 107.878 22.8019C108.855 23.7885 109.521 25.0468 109.792 26.4175C110.063 27.7881 109.926 29.2095 109.4 30.5015C108.874 31.7935 107.981 32.898 106.835 33.6752C105.689 34.4524 104.342 34.8672 102.963 34.8672C102.048 34.8776 101.14 34.7029 100.293 34.3534C99.4448 34.0038 98.6742 33.4864 98.0258 32.8314C97.3775 32.1763 96.8643 31.3969 96.5164 30.5384C96.1685 29.68 95.9928 28.7599 95.9996 27.8318ZM105.985 27.8318C105.985 25.9398 104.672 24.6872 102.963 24.6872C101.255 24.6872 99.9412 25.9398 99.9412 27.8318C99.9412 29.7242 101.255 30.9764 102.963 30.9764C104.672 30.9764 105.985 29.7242 105.985 27.8318Z" fill="white"/>
<path d="M120.465 20.9033V25.4336C118.835 25.1671 116.523 25.8335 116.523 28.4718V34.4945H112.581V21.1698H116.523V23.5416C117.048 21.7559 118.809 20.9033 120.465 20.9033Z" fill="white"/>
<path d="M143.221 26.313V34.4943H139.279V26.6593C139.279 25.327 138.649 24.474 137.387 24.474C136.074 24.474 135.338 25.4067 135.338 26.9792V34.4943H131.396V26.6593C131.396 25.327 130.765 24.474 129.504 24.474C128.19 24.474 127.454 25.4067 127.454 26.9792V34.4943H123.512V21.1696H127.454V22.3955C128.058 21.4892 129.215 20.7964 130.975 20.7964C132.526 20.7964 133.682 21.4362 134.418 22.5553C135.154 21.4892 136.363 20.7964 138.229 20.7964C141.25 20.7964 143.221 22.9816 143.221 26.313Z" fill="white"/>
<path d="M160.223 21.1696V34.4943H156.281V33.2417C155.414 34.2545 154.126 34.8672 152.366 34.8672C148.923 34.8672 146.085 31.8027 146.085 27.8318C146.085 23.8613 148.923 20.7964 152.366 20.7964C154.126 20.7964 155.414 21.4095 156.281 22.4222V21.1696H160.223ZM156.281 27.8318C156.281 25.8333 154.967 24.5808 153.154 24.5808C151.341 24.5808 150.026 25.8333 150.026 27.8318C150.026 29.8306 151.341 31.0832 153.154 31.0832C154.967 31.0832 156.281 29.8306 156.281 27.8318Z" fill="white"/>
<path d="M177.408 21.1696V34.4943H173.466V33.2417C172.599 34.2545 171.311 34.8672 169.551 34.8672C166.108 34.8672 163.27 31.8027 163.27 27.8318C163.27 23.8613 166.108 20.7964 169.551 20.7964C171.311 20.7964 172.599 21.4095 173.466 22.4222V21.1696H177.408ZM173.466 27.8318C173.466 25.8333 172.152 24.5808 170.339 24.5808C168.526 24.5808 167.212 25.8333 167.212 27.8318C167.212 29.8306 168.526 31.0832 170.339 31.0832C172.152 31.0832 173.466 29.8306 173.466 27.8318Z" fill="white"/>
<path d="M186.368 25.0072V29.7243C186.368 30.8701 187.34 30.9765 189.075 30.8701V34.4944C183.924 35.0274 182.426 33.455 182.426 29.7243V25.0072H180.324V21.1697H182.426V18.6379L186.368 17.4387V21.1697H189.075V25.0072H186.368Z" fill="white"/>
<path fill-rule="evenodd" clip-rule="evenodd" d="M49.6638 1.5L1.36396 2.76893L0.738281 51.1155L50.2894 51.75L49.6638 1.5ZM32.4048 26.3642L32.59 15.2835L32.6013 14.6237L33.2507 14.6605L36.5129 14.847L37.0885 14.88L37.1035 15.4651L37.3626 26.1739L37.3763 26.7931L36.7682 26.8236L33.0605 27.0089L32.3936 27.0431L32.4048 26.3642ZM18.5823 26.978L18.3971 38.0599L18.3859 38.7198L17.7352 38.6817L14.4742 38.4964L13.8974 38.4635L13.8836 37.8785L13.6234 27.1696L13.6096 26.5504L14.2189 26.52L17.9254 26.3334L18.5936 26.3004L18.5823 26.978ZM16.0138 19.7553C14.3044 19.7553 12.9655 18.5675 12.9655 17.0498C12.9655 15.4839 14.3319 14.2099 16.0138 14.2099H16.0325C18.0121 14.2721 19.2409 15.343 19.2409 17.0055C19.2409 18.65 17.5716 19.7553 16.0137 19.7553H16.0138ZM34.9544 39.1325H34.9531C32.9748 39.0703 31.7447 38.0006 31.7447 36.3382C31.7447 34.6937 33.414 33.5883 34.9732 33.5883C36.6825 33.5883 38.0227 34.7761 38.0227 36.2925C38.0226 37.8597 36.6549 39.1325 34.9543 39.1325H34.9544Z" fill="white"/>
</g>
<defs>
<clipPath id="clip0_19148_2136">
<rect width="189" height="54" fill="white"/>
</clipPath>
</defs>
</svg>
