<svg width="24" height="24" viewBox="0 0 24 24" fill="none" xmlns="http://www.w3.org/2000/svg">
<path d="M13.8367 10.5102L20.8255 2.30401H19.1731L13.0918 9.42971L8.24299 2.30401H2.64926L9.99018 13.0815L2.64926 21.698H4.30165L10.7216 14.1619L15.8412 21.698H21.435L13.8232 10.5102H13.8367ZM11.5613 13.1772L10.8164 12.0967L4.91113 3.56229H7.45743L12.225 10.4555L12.9699 11.536L19.1731 20.4944H16.6268L11.5613 13.1772Z" fill="#190B34"/>
<path fill-rule="evenodd" clip-rule="evenodd" d="M13.8232 10.5102L21.435 21.698H15.8412L10.7216 14.1619L4.30165 21.698H2.64926L9.99018 13.0815L2.64926 2.30401H8.24299L13.0918 9.42971L19.1731 2.30401H20.8255L13.8367 10.5102H13.8232ZM13.1043 9.19494L19.1094 2.15856H21.1371L14.0083 10.5291L21.7062 21.8434H15.7679L10.7091 14.397L4.36544 21.8434H2.33763L9.81102 13.0714L2.37786 2.15856H8.31628L13.1043 9.19494ZM10.8164 12.0967L11.5613 13.1772L16.6268 20.4944H19.1731L12.9699 11.536L12.225 10.4555L7.45743 3.56229H4.91113L10.8164 12.0967ZM5.18501 3.70775L10.9311 12.0122L11.676 13.0927L16.6994 20.3489H18.8991L12.8552 11.6205L12.1102 10.54L7.38483 3.70775H5.18501Z" fill="#190B34"/>
<path fill-rule="evenodd" clip-rule="evenodd" d="M14.0083 10.5291L21.7062 21.8434H15.7679L10.7091 14.397L4.36544 21.8434H2.33763L9.81102 13.0714L2.37786 2.15856H8.31628L13.1043 9.19494L19.1094 2.15856H21.1371L14.0083 10.5291ZM13.1178 8.94059L19.0403 2.00098H21.4746L14.2023 10.54L22 22.001H15.6884L10.6955 14.6516L4.43453 22.001H2L9.61691 13.0605L2.08383 2.00098H8.39565L13.1178 8.94059ZM10.9311 12.0122L11.676 13.0927L16.6994 20.3489H18.8991L12.8552 11.6205L12.1102 10.54L7.38483 3.70775H5.18501L10.9311 12.0122ZM5.48168 3.86532L11.0554 11.9207L11.8003 13.0011L16.778 20.1913H18.6023L12.7309 11.7121L11.9858 10.6315L7.30615 3.86532H5.48168Z" fill="#190B34"/>
</svg>
